<svg width="280" height="280" viewBox="0 0 380 380" fill="none" xmlns="http://www.w3.org/2000/svg"><g id="gaoxia-avatar-BackgroundColor"><rect width="100%" height="100%" fill="#E0DDFF" /></g><g id="gaoxia-avatar-Background"><rect width="100%" height="100%" fill="{{color[0]}}" /><rect width="380" height="380" fill="{{color[0]}}" /><g clip-path="url(#clip0)"><rect x="-52.8232" y="117.184" width="380" height="380" transform="rotate(-45 -52.8232 117.184)" fill="#E21F1F" stroke="black" stroke-width="380"/><rect x="-33.3358" y="117.184" width="380" height="380" transform="rotate(-45 -33.3358 117.184)" stroke="#FFE661" stroke-width="380"/><path d="M47.125 156.184C45.9583 156.184 44.9583 156.601 44.125 157.434C43.2917 158.351 42.875 159.392 42.875 160.559V168.059C42.875 168.892 43.2917 169.559 44.125 170.059C44.9583 170.642 45.9583 170.934 47.125 170.934H50.125C51.375 170.934 52.4167 170.767 53.25 170.434C54.0833 170.184 54.5 169.809 54.5 169.309C54.5 168.892 54.9167 168.517 55.75 168.184C56.5833 167.934 57.625 167.809 58.875 167.809H68.125C69.2917 167.809 70.2917 167.351 71.125 166.434C72.0417 165.601 72.5 164.601 72.5 163.434V160.559C72.5 159.392 72.0417 158.351 71.125 157.434C70.2917 156.601 69.2917 156.184 68.125 156.184H47.125ZM126.125 163.809C126.125 162.559 125.708 161.517 124.875 160.684C124.042 159.851 123 159.434 121.75 159.434H81.125C79.9583 159.434 78.9167 159.851 78 160.684C77.1667 161.517 76.75 162.559 76.75 163.809V166.684C76.75 167.851 77.1667 168.851 78 169.684C78.9167 170.517 79.9583 170.934 81.125 170.934H121.75C123 170.934 124.042 170.517 124.875 169.684C125.708 168.851 126.125 167.851 126.125 166.684V163.809ZM81.125 118.684C79.9583 118.684 78.9167 119.101 78 119.934C77.1667 120.851 76.75 121.934 76.75 123.184V150.059C76.75 151.226 77.1667 152.226 78 153.059C78.9167 153.976 79.9583 154.434 81.125 154.434H121.75C123 154.434 124.042 153.976 124.875 153.059C125.708 152.226 126.125 151.226 126.125 150.059V123.184C126.125 121.934 125.708 120.851 124.875 119.934C124.042 119.101 123 118.684 121.75 118.684H81.125ZM46.75 111.809C46.75 112.976 46.5417 113.976 46.125 114.809C45.7083 115.726 45.2083 116.184 44.625 116.184C44.125 116.184 43.7083 116.601 43.375 117.434C43.0417 118.267 42.875 119.309 42.875 120.559V123.309C42.875 124.476 43.2917 125.476 44.125 126.309C44.9583 127.226 45.9583 127.684 47.125 127.684H56.5C57.75 127.684 58.7917 128.101 59.625 128.934C60.4583 129.851 60.875 130.892 60.875 132.059V136.809C60.875 137.976 60.4583 138.976 59.625 139.809C58.7917 140.726 57.75 141.184 56.5 141.184H47.125C45.9583 141.184 44.9583 141.601 44.125 142.434C43.2917 143.267 42.875 144.267 42.875 145.434V148.434C42.875 149.601 43.2917 150.601 44.125 151.434C44.9583 152.267 45.9583 152.684 47.125 152.684H68.125C69.2917 152.684 70.2917 152.267 71.125 151.434C72.0417 150.601 72.5 149.601 72.5 148.434V120.559C72.5 119.309 72.0417 118.267 71.125 117.434C70.2917 116.601 69.2917 116.184 68.125 116.184H61.5C60.1667 116.184 59.125 115.934 58.375 115.434C57.625 114.934 57.25 114.351 57.25 113.684C57.25 113.017 57.625 112.434 58.375 111.934C59.125 111.517 60.1667 111.351 61.5 111.434L66.875 111.559C68.125 111.559 69.1667 111.101 70 110.184C70.8333 109.351 71.25 108.351 71.25 107.184V64.6841C71.25 63.6007 70.8333 62.6424 70 61.8091C69.1667 60.8924 68.125 60.4341 66.875 60.4341H65.25C64.0833 60.4341 63.0417 60.8924 62.125 61.8091C61.2917 62.6424 60.875 63.6007 60.875 64.6841V95.5591C60.875 96.8924 60.6667 97.8924 60.25 98.5591C59.9167 99.3091 59.5 99.6841 59 99.6841C58.5 99.6841 58.0417 99.3091 57.625 98.5591C57.2917 97.8091 57.125 96.8091 57.125 95.5591V60.5591C57.125 59.3924 56.6667 58.3924 55.75 57.5591C54.9167 56.6424 53.875 56.1841 52.625 56.1841H51C49.8333 56.1841 48.8333 56.6424 48 57.5591C47.1667 58.3924 46.75 59.3924 46.75 60.5591V111.809ZM88.25 134.809C88.25 133.559 88.6667 132.476 89.5 131.559C90.4167 130.726 91.5 130.309 92.75 130.309H110.25C111.5 130.309 112.542 130.726 113.375 131.559C114.208 132.476 114.625 133.559 114.625 134.809V138.434C114.625 139.684 114.208 140.726 113.375 141.559C112.542 142.392 111.5 142.809 110.25 142.809H92.75C91.5 142.809 90.4167 142.392 89.5 141.559C88.6667 140.726 88.25 139.684 88.25 138.434V134.809ZM81.125 56.1841C79.9583 56.1841 78.9167 56.6424 78 57.5591C77.1667 58.3924 76.75 59.3924 76.75 60.5591V109.559C76.75 110.726 77.1667 111.767 78 112.684C78.9167 113.601 79.9583 114.059 81.125 114.059H121.75C123 114.059 124.042 113.601 124.875 112.684C125.708 111.851 126.125 110.809 126.125 109.559V60.5591C126.125 59.3924 125.708 58.3924 124.875 57.5591C124.042 56.6424 123 56.1841 121.75 56.1841H81.125ZM114.5 98.0591C114.5 99.2257 114.125 100.226 113.375 101.059C112.625 101.892 111.708 102.309 110.625 102.309C109.458 102.309 108.5 101.892 107.75 101.059C107 100.226 106.625 99.2257 106.625 98.0591V95.1841C106.625 93.9341 107 92.8924 107.75 92.0591C108.5 91.2257 109.458 90.8091 110.625 90.8091C111.708 90.8091 112.625 91.2257 113.375 92.0591C114.125 92.9757 114.5 94.0174 114.5 95.1841V98.0591ZM88.25 95.1841C88.25 94.0174 88.625 92.9757 89.375 92.0591C90.2083 91.2257 91.1667 90.8091 92.25 90.8091C93.3333 90.8091 94.25 91.2257 95 92.0591C95.75 92.9757 96.125 94.0174 96.125 95.1841V98.0591C96.2083 99.3091 95.8333 100.309 95 101.059C94.25 101.809 93.3333 102.184 92.25 102.184C91.1667 102.184 90.2083 101.809 89.375 101.059C88.5417 100.309 88.1667 99.3091 88.25 98.0591V95.1841ZM110.625 67.8091C111.708 67.8091 112.625 68.2257 113.375 69.0591C114.125 69.8924 114.5 70.9341 114.5 72.1841V74.9341C114.5 76.1841 114.125 77.2257 113.375 78.0591C112.625 78.8924 111.708 79.3091 110.625 79.3091C109.458 79.3091 108.5 78.8924 107.75 78.0591C107 77.2257 106.625 76.1841 106.625 74.9341V72.1841C106.625 70.9341 107 69.8924 107.75 69.0591C108.5 68.2257 109.458 67.8091 110.625 67.8091ZM96.125 74.9341C96.125 76.2674 95.7083 77.3091 94.875 78.0591C94.125 78.8091 93.25 79.1841 92.25 79.1841C91.1667 79.1841 90.2083 78.8091 89.375 78.0591C88.625 77.3091 88.25 76.2674 88.25 74.9341V72.1841C88.25 70.8507 88.625 69.8091 89.375 69.0591C90.2083 68.3091 91.1667 67.9341 92.25 67.9341C93.25 67.9341 94.125 68.3091 94.875 69.0591C95.7083 69.8091 96.125 70.8507 96.125 72.1841V74.9341Z" fill="#FFE661"/><rect x="190.177" y="266.184" width="380" height="380" transform="rotate(-45 190.177 266.184)" fill="#E21F1F" stroke="black" stroke-width="380"/><rect x="209.664" y="266.184" width="380" height="380" transform="rotate(-45 209.664 266.184)" stroke="#FFE661" stroke-width="380"/><path d="M290.125 305.184C288.958 305.184 287.958 305.601 287.125 306.434C286.292 307.351 285.875 308.392 285.875 309.559V317.059C285.875 317.892 286.292 318.559 287.125 319.059C287.958 319.642 288.958 319.934 290.125 319.934H293.125C294.375 319.934 295.417 319.767 296.25 319.434C297.083 319.184 297.5 318.809 297.5 318.309C297.5 317.892 297.917 317.517 298.75 317.184C299.583 316.934 300.625 316.809 301.875 316.809H311.125C312.292 316.809 313.292 316.351 314.125 315.434C315.042 314.601 315.5 313.601 315.5 312.434V309.559C315.5 308.392 315.042 307.351 314.125 306.434C313.292 305.601 312.292 305.184 311.125 305.184H290.125ZM369.125 312.809C369.125 311.559 368.708 310.517 367.875 309.684C367.042 308.851 366 308.434 364.75 308.434H324.125C322.958 308.434 321.917 308.851 321 309.684C320.167 310.517 319.75 311.559 319.75 312.809V315.684C319.75 316.851 320.167 317.851 321 318.684C321.917 319.517 322.958 319.934 324.125 319.934H364.75C366 319.934 367.042 319.517 367.875 318.684C368.708 317.851 369.125 316.851 369.125 315.684V312.809ZM324.125 267.684C322.958 267.684 321.917 268.101 321 268.934C320.167 269.851 319.75 270.934 319.75 272.184V299.059C319.75 300.226 320.167 301.226 321 302.059C321.917 302.976 322.958 303.434 324.125 303.434H364.75C366 303.434 367.042 302.976 367.875 302.059C368.708 301.226 369.125 300.226 369.125 299.059V272.184C369.125 270.934 368.708 269.851 367.875 268.934C367.042 268.101 366 267.684 364.75 267.684H324.125ZM289.75 260.809C289.75 261.976 289.542 262.976 289.125 263.809C288.708 264.726 288.208 265.184 287.625 265.184C287.125 265.184 286.708 265.601 286.375 266.434C286.042 267.267 285.875 268.309 285.875 269.559V272.309C285.875 273.476 286.292 274.476 287.125 275.309C287.958 276.226 288.958 276.684 290.125 276.684H299.5C300.75 276.684 301.792 277.101 302.625 277.934C303.458 278.851 303.875 279.892 303.875 281.059V285.809C303.875 286.976 303.458 287.976 302.625 288.809C301.792 289.726 300.75 290.184 299.5 290.184H290.125C288.958 290.184 287.958 290.601 287.125 291.434C286.292 292.267 285.875 293.267 285.875 294.434V297.434C285.875 298.601 286.292 299.601 287.125 300.434C287.958 301.267 288.958 301.684 290.125 301.684H311.125C312.292 301.684 313.292 301.267 314.125 300.434C315.042 299.601 315.5 298.601 315.5 297.434V269.559C315.5 268.309 315.042 267.267 314.125 266.434C313.292 265.601 312.292 265.184 311.125 265.184H304.5C303.167 265.184 302.125 264.934 301.375 264.434C300.625 263.934 300.25 263.351 300.25 262.684C300.25 262.017 300.625 261.434 301.375 260.934C302.125 260.517 303.167 260.351 304.5 260.434L309.875 260.559C311.125 260.559 312.167 260.101 313 259.184C313.833 258.351 314.25 257.351 314.25 256.184V213.684C314.25 212.601 313.833 211.642 313 210.809C312.167 209.892 311.125 209.434 309.875 209.434H308.25C307.083 209.434 306.042 209.892 305.125 210.809C304.292 211.642 303.875 212.601 303.875 213.684V244.559C303.875 245.892 303.667 246.892 303.25 247.559C302.917 248.309 302.5 248.684 302 248.684C301.5 248.684 301.042 248.309 300.625 247.559C300.292 246.809 300.125 245.809 300.125 244.559V209.559C300.125 208.392 299.667 207.392 298.75 206.559C297.917 205.642 296.875 205.184 295.625 205.184H294C292.833 205.184 291.833 205.642 291 206.559C290.167 207.392 289.75 208.392 289.75 209.559V260.809ZM331.25 283.809C331.25 282.559 331.667 281.476 332.5 280.559C333.417 279.726 334.5 279.309 335.75 279.309H353.25C354.5 279.309 355.542 279.726 356.375 280.559C357.208 281.476 357.625 282.559 357.625 283.809V287.434C357.625 288.684 357.208 289.726 356.375 290.559C355.542 291.392 354.5 291.809 353.25 291.809H335.75C334.5 291.809 333.417 291.392 332.5 290.559C331.667 289.726 331.25 288.684 331.25 287.434V283.809ZM324.125 205.184C322.958 205.184 321.917 205.642 321 206.559C320.167 207.392 319.75 208.392 319.75 209.559V258.559C319.75 259.726 320.167 260.767 321 261.684C321.917 262.601 322.958 263.059 324.125 263.059H364.75C366 263.059 367.042 262.601 367.875 261.684C368.708 260.851 369.125 259.809 369.125 258.559V209.559C369.125 208.392 368.708 207.392 367.875 206.559C367.042 205.642 366 205.184 364.75 205.184H324.125ZM357.5 247.059C357.5 248.226 357.125 249.226 356.375 250.059C355.625 250.892 354.708 251.309 353.625 251.309C352.458 251.309 351.5 250.892 350.75 250.059C350 249.226 349.625 248.226 349.625 247.059V244.184C349.625 242.934 350 241.892 350.75 241.059C351.5 240.226 352.458 239.809 353.625 239.809C354.708 239.809 355.625 240.226 356.375 241.059C357.125 241.976 357.5 243.017 357.5 244.184V247.059ZM331.25 244.184C331.25 243.017 331.625 241.976 332.375 241.059C333.208 240.226 334.167 239.809 335.25 239.809C336.333 239.809 337.25 240.226 338 241.059C338.75 241.976 339.125 243.017 339.125 244.184V247.059C339.208 248.309 338.833 249.309 338 250.059C337.25 250.809 336.333 251.184 335.25 251.184C334.167 251.184 333.208 250.809 332.375 250.059C331.542 249.309 331.167 248.309 331.25 247.059V244.184ZM353.625 216.809C354.708 216.809 355.625 217.226 356.375 218.059C357.125 218.892 357.5 219.934 357.5 221.184V223.934C357.5 225.184 357.125 226.226 356.375 227.059C355.625 227.892 354.708 228.309 353.625 228.309C352.458 228.309 351.5 227.892 350.75 227.059C350 226.226 349.625 225.184 349.625 223.934V221.184C349.625 219.934 350 218.892 350.75 218.059C351.5 217.226 352.458 216.809 353.625 216.809ZM339.125 223.934C339.125 225.267 338.708 226.309 337.875 227.059C337.125 227.809 336.25 228.184 335.25 228.184C334.167 228.184 333.208 227.809 332.375 227.059C331.625 226.309 331.25 225.267 331.25 223.934V221.184C331.25 219.851 331.625 218.809 332.375 218.059C333.208 217.309 334.167 216.934 335.25 216.934C336.25 216.934 337.125 217.309 337.875 218.059C338.708 218.809 339.125 219.851 339.125 221.184V223.934Z" fill="#FFE661"/></g><defs><clipPath id="clip0"><rect width="380" height="380" fill="white"/></clipPath></defs></g><g id="gaoxia-avatar-Base"><g clip-path="url(#clip0)"><path d="M244 362.5C229.6 342.5 218.333 303.834 217 284.5L148.5 255L120 362.5H244Z" fill="#FFDACB" stroke="black" stroke-width="4"/><mask id="mask0" mask-type="alpha" maskUnits="userSpaceOnUse" x="120" y="255" width="124" height="118"><path d="M244 372.5C229.6 352.5 218.333 303.834 217 284.5L148.5 255L120 372.5H244Z" fill="#AC6651"/></mask><g mask="url(#mask0)"><g style="mix-blend-mode:multiply"><ellipse cx="214" cy="253" rx="59" ry="54" fill="black"/></g></g><mask id="path-4-inside-1" fill="white"><path fill-rule="evenodd" clip-rule="evenodd" d="M273.887 193.917C273.86 193.802 273.832 193.686 273.804 193.57C273.777 193.454 273.749 193.339 273.72 193.223L257.324 124.786C257.307 124.718 257.291 124.651 257.275 124.583C257.259 124.515 257.242 124.447 257.226 124.379L257.153 124.076L257.152 124.076C246.934 82.6315 205.157 57.148 163.583 67.1088C122.009 77.0696 96.3164 118.718 105.989 160.294L105.987 160.294L122.979 231.212L122.993 231.209C133.595 272.113 175.063 297.15 216.33 287.262C257.598 277.375 283.217 236.265 274.132 194.997L274.145 194.994L273.887 193.917Z"/></mask><path fill-rule="evenodd" clip-rule="evenodd" d="M273.887 193.917C273.86 193.802 273.832 193.686 273.804 193.57C273.777 193.454 273.749 193.339 273.72 193.223L257.324 124.786C257.307 124.718 257.291 124.651 257.275 124.583C257.259 124.515 257.242 124.447 257.226 124.379L257.153 124.076L257.152 124.076C246.934 82.6315 205.157 57.148 163.583 67.1088C122.009 77.0696 96.3164 118.718 105.989 160.294L105.987 160.294L122.979 231.212L122.993 231.209C133.595 272.113 175.063 297.15 216.33 287.262C257.598 277.375 283.217 236.265 274.132 194.997L274.145 194.994L273.887 193.917Z" fill="#FFDACB"/><path d="M273.887 193.917L269.993 194.832L269.995 194.841L269.997 194.849L273.887 193.917ZM273.72 193.223L269.831 194.155L269.833 194.164L269.835 194.173L273.72 193.223ZM257.324 124.786L253.431 125.708L253.434 125.718L257.324 124.786ZM257.226 124.379L253.336 125.311L253.339 125.322L257.226 124.379ZM257.153 124.076L261.043 123.144L260.112 119.256L256.223 120.186L257.153 124.076ZM257.152 124.076L253.268 125.034L254.219 128.89L258.082 127.967L257.152 124.076ZM163.583 67.1088L162.651 63.2189L163.583 67.1088ZM105.989 160.294L106.923 164.183L110.785 163.255L109.885 159.387L105.989 160.294ZM105.987 160.294L105.053 156.405L101.166 157.338L102.097 161.226L105.987 160.294ZM122.979 231.212L119.089 232.144L120.021 236.035L123.912 235.101L122.979 231.212ZM122.993 231.209L126.865 230.205L125.879 226.402L122.059 227.319L122.993 231.209ZM216.33 287.262L215.398 283.372H215.398L216.33 287.262ZM274.132 194.997L273.201 191.107L269.382 192.021L270.226 195.857L274.132 194.997ZM274.145 194.994L275.076 198.884L278.967 197.952L278.035 194.062L274.145 194.994ZM277.781 193.003C277.752 192.881 277.723 192.76 277.694 192.638L269.915 194.502C269.941 194.612 269.967 194.722 269.993 194.832L277.781 193.003ZM277.694 192.638C277.665 192.517 277.636 192.395 277.606 192.274L269.835 194.173C269.861 194.282 269.888 194.392 269.915 194.502L277.694 192.638ZM253.434 125.718L269.831 194.155L277.61 192.291L261.213 123.854L253.434 125.718ZM261.216 123.864C261.199 123.794 261.182 123.722 261.165 123.651L253.385 125.515C253.401 125.579 253.416 125.643 253.431 125.708L261.216 123.864ZM261.165 123.651C261.148 123.58 261.131 123.509 261.113 123.437L253.339 125.322C253.354 125.386 253.37 125.45 253.385 125.515L261.165 123.651ZM253.263 125.008L253.336 125.311L261.116 123.447L261.043 123.144L253.263 125.008ZM258.082 127.967L258.084 127.966L256.223 120.186L256.222 120.186L258.082 127.967ZM261.036 123.119C250.292 79.5405 206.365 52.7454 162.651 63.2189L164.515 70.9987C203.949 61.5506 243.576 85.7226 253.268 125.034L261.036 123.119ZM162.651 63.2189C118.937 73.6924 91.9225 117.484 102.093 161.2L109.885 159.387C100.71 119.952 125.081 80.4469 164.515 70.9987L162.651 63.2189ZM106.921 164.183L106.923 164.183L105.055 156.404L105.053 156.405L106.921 164.183ZM126.869 230.28L109.877 159.362L102.097 161.226L119.089 232.144L126.869 230.28ZM122.059 227.319L122.045 227.322L123.912 235.101L123.926 235.098L122.059 227.319ZM119.121 232.212C130.269 275.223 173.87 301.548 217.262 291.152L215.398 283.372C176.255 292.751 136.921 269.003 126.865 230.205L119.121 232.212ZM217.262 291.152C260.654 280.756 287.592 237.53 278.039 194.137L270.226 195.857C278.843 235 254.542 273.994 215.398 283.372L217.262 291.152ZM273.213 191.104L273.201 191.107L275.064 198.887L275.076 198.884L273.213 191.104ZM269.997 194.849L270.255 195.926L278.035 194.062L277.777 192.985L269.997 194.849Z" fill="black" mask="url(#path-4-inside-1)"/><path d="M270.125 194.454C279.614 234.058 255.201 273.856 215.597 283.344C192.29 288.929 168.915 282.771 151.691 268.686C134.499 252.8 130.499 201.3 126.692 176.949C140.691 208.45 176.316 210.895 210.192 204.95C238.691 199.95 261.49 198.95 261.49 159.95C263.376 162.566 268.468 187.537 270.125 194.454Z" fill="#FFDACB"/></g><ellipse cx="209.75" cy="188.445" rx="69.5387" ry="31.1548" transform="rotate(-12.0124 209.75 188.445)" fill="url(#paint0_radial)"/><defs><radialGradient id="paint0_radial" cx="0" cy="0" r="1" gradientUnits="userSpaceOnUse" gradientTransform="translate(209.75 188.445) rotate(90) scale(31.1548 69.5387)"><stop stop-color="#ED9E56"/><stop offset="1" stop-color="#F7B9B9" stop-opacity="0"/></radialGradient><clipPath id="clip0"><rect width="200" height="320" fill="white" transform="translate(90 43)"/></clipPath></defs></g><g id="gaoxia-avatar-Eyebrows"><path d="M147 150.5C153.167 153 168.1 153.5 178.5 135.5" stroke="black" stroke-width="4" stroke-linecap="round"/><path d="M214 128C219.167 133.333 232.1 140.8 242.5 128" stroke="black" stroke-width="4" stroke-linecap="round"/></g><g id="gaoxia-avatar-Eyes"><ellipse cx="168.53" cy="168.403" rx="9" ry="13.5" transform="rotate(-6.77646 168.53 168.403)" fill="black"/><ellipse cx="232.53" cy="158.403" rx="9" ry="13.5" transform="rotate(-6.27568 232.53 158.403)" fill="black"/></g><g id="gaoxia-avatar-Shirt"><path d="M54.1103 363.5C50.9103 363.5 39.777 372.167 41.1103 378.5H339.11C339.11 378.5 322.61 359 314.61 352C306.61 345 292.61 352 285.11 346C277.61 340 253.61 329.5 245.61 329.5C242.111 329.5 218.111 363.171 192.11 363.5C158.678 363.923 121.611 330.906 117.11 329.5C109.11 327 84.6103 340.5 80.6103 346C76.6103 351.5 58.1103 363.5 54.1103 363.5Z" fill="#B4B0CD" stroke="black" stroke-width="4"/><path d="M193.653 359.561C192.453 352.924 217.138 317.755 229.63 301C245.62 315.445 251.283 325.888 252.116 329.304C251.283 331.256 251.816 335.16 260.61 335.16C258.112 343.944 235.626 346.873 235.626 352.729C235.626 357.413 240.956 359.235 243.621 359.561L235.626 379.569C229.297 379.894 215.239 380.35 209.642 379.569C202.647 378.593 195.152 367.857 193.653 359.561Z" fill="#e4e2f1" stroke="black" stroke-width="4"/><path d="M207.11 379.5C195.11 351.1 153.777 318.333 134.61 305.5C130.61 302.755 90.6105 336 99.6105 333C106.81 330.6 118.61 336.667 123.61 340C117.444 344.667 106.51 354.1 112.11 354.5C119.11 355 127.61 356 134.61 362.5C140.21 367.7 158.277 376 166.61 379.5H207.11Z" fill="#e4e2f1" stroke="black" stroke-width="4"/></g><g id="gaoxia-avatar-Mouth"><rect x="173.248" y="222.471" width="70" height="24" rx="4" transform="rotate(-4 173.248 222.471)" fill="black"/><path fill-rule="evenodd" clip-rule="evenodd" d="M236.822 218.025L179.504 222.033L181.344 229.038C182.077 231.827 184.69 233.7 187.566 233.499C184.69 233.7 182.363 235.919 182.026 238.782L181.179 245.975L238.496 241.967L236.656 234.962C235.923 232.173 233.31 230.3 230.434 230.501C233.31 230.3 235.637 228.081 235.974 225.218L236.822 218.025Z" fill="white"/><path d="M178.067 220.845C174.411 220.582 171.323 223.61 171.581 227.296L172.6 241.866C172.857 245.552 176.337 248.12 179.921 247.351C186.865 245.86 200.142 243.217 209.737 242.546C219.333 241.875 232.849 242.645 239.933 243.155C243.589 243.418 246.677 240.39 246.419 236.704L245.4 222.134C245.143 218.448 241.663 215.88 238.079 216.649C231.135 218.14 217.858 220.783 208.263 221.454C198.667 222.125 185.151 221.355 178.067 220.845Z" stroke="black" stroke-width="4"/></g><g id="gaoxia-avatar-Hair"><path d="M86.9987 90.3138C108.199 42.7137 165.667 35.163 186 37.3297C240.4 38.9297 270.667 80.663 275.5 101.33C258.7 112.93 183.5 114.83 160.5 114.33C169.3 121.13 191.5 120.83 196.5 119.83C173.7 140.63 132.833 150.496 113.5 153.33C118.333 174.163 132.223 219.119 130.482 227.577C128.478 237.316 134.199 246.349 138.288 258.244L125.075 236.562C125.075 236.562 100.35 271.525 78.5156 244.174C56.6813 216.823 82.7222 207.046 99.3348 199.558C85.6169 160.904 65.7989 137.914 86.9987 90.3138Z" fill="#CB7F50" stroke="black" stroke-width="4"/><path d="M98.5 200L99.3342 199.566C99.3342 199.566 112.204 212.889 114.962 216.336C117.72 219.784 125.535 235.413 125.535 235.413L124.5 237.5C124.5 237.5 115.833 219.5 113 216.5C104.5 207.5 98.5 200 98.5 200Z" fill="#C4C4C4"/></g><g id="gaoxia-avatar-Ear"><path d="M120.5 183.176C118.17 182.408 115.655 182 113.08 182C102.587 182 94.0801 188.5 95.08 200.5C96.1216 213 103.587 217.5 114.08 217.5C115.248 217.5 116.391 217.397 117.5 217.201C118.711 216.987 119.881 216.661 121 216.235" stroke="#171921" stroke-width="8"/><path d="M121.5 216.036C119.22 216.979 116.713 217.5 114.08 217.5C103.587 217.5 96.1216 213 95.08 200.5C94.0801 188.5 102.587 182 113.08 182C116.217 182 119.267 182.606 122 183.73L121.5 216.036Z" fill="#FFDACB"/><path d="M117.5 190.5C113.5 188.667 104.7 187.7 101.5 198.5" stroke="#171921" stroke-width="4"/><path d="M107 191C109.167 192.833 113.3 198.5 112.5 206.5" stroke="#171921" stroke-width="4"/></g><g id="gaoxia-avatar-Ear Ring"><path d="M107 204C120.255 204 131 214.745 131 228C131 241.255 120.255 252 107 252C93.7452 252 83 241.255 83 228C83 221.609 86.5 216.5 89.5715 211.5L90.5 210" stroke="#F4D150" stroke-width="4"/></g><g id="gaoxia-avatar-Glasses"><path d="M142.961 177.5L108.461 184.125" stroke="black" stroke-width="4" stroke-linecap="round"/><path d="M138.949 160.94C138.079 157.481 140.401 154.032 143.933 153.535L182.649 148.094C185.931 147.633 188.965 149.919 189.426 153.201L194.993 192.811C195.454 196.093 193.168 199.127 189.886 199.588L155.414 204.433C152.377 204.86 149.507 202.928 148.76 199.955L138.949 160.94Z" stroke="black" stroke-width="4"/><path d="M261.212 143.964C261.095 140.399 257.912 137.723 254.38 138.22L215.663 143.661C212.382 144.122 210.096 147.156 210.557 150.437L216.124 190.048C216.585 193.33 219.619 195.616 222.9 195.155L257.373 190.31C260.409 189.883 262.636 187.236 262.535 184.171L261.212 143.964Z" stroke="black" stroke-width="4"/><path d="M191.961 172.125L213.961 168.625" stroke="black" stroke-width="4"/></g></svg>