<svg width="280" height="280" viewBox="0 0 380 380" fill="none" xmlns="http://www.w3.org/2000/svg"><g id="gaoxia-avatar-Background"><rect width="100%" height="100%" fill="#9287FF" /></g><g id="gaoxia-avatar-Base"><g>  <g clip-path="url(#clip0)">  <path d="M244 362.5C229.6 342.5 218.333 303.834 217 284.5L148.5 255L120 362.5H244Z" fill="#D4A08C" stroke="black" stroke-width="4"/>  <mask id="mask0" mask-type="alpha" maskUnits="userSpaceOnUse" x="120" y="255" width="124" height="118">  <path d="M244 372.5C229.6 352.5 218.333 303.834 217 284.5L148.5 255L120 372.5H244Z" fill="#AC6651"/>  </mask>  <g mask="url(#mask0)">  <g style="mix-blend-mode:multiply">  <ellipse cx="214" cy="253" rx="59" ry="54" fill="black"/>  </g>  </g>  <mask id="path-4-inside-1" fill="white">  <path fill-rule="evenodd" clip-rule="evenodd" d="M273.887 193.917C273.86 193.802 273.832 193.686 273.804 193.57C273.777 193.454 273.749 193.339 273.72 193.223L257.324 124.786C257.307 124.718 257.291 124.651 257.275 124.583C257.259 124.515 257.242 124.447 257.226 124.379L257.153 124.076L257.152 124.076C246.934 82.6315 205.157 57.148 163.583 67.1088C122.009 77.0696 96.3164 118.718 105.989 160.294L105.987 160.294L122.979 231.212L122.993 231.209C133.595 272.113 175.063 297.15 216.33 287.262C257.598 277.375 283.217 236.265 274.132 194.997L274.145 194.994L273.887 193.917Z"/>  </mask>  <path fill-rule="evenodd" clip-rule="evenodd" d="M273.887 193.917C273.86 193.802 273.832 193.686 273.804 193.57C273.777 193.454 273.749 193.339 273.72 193.223L257.324 124.786C257.307 124.718 257.291 124.651 257.275 124.583C257.259 124.515 257.242 124.447 257.226 124.379L257.153 124.076L257.152 124.076C246.934 82.6315 205.157 57.148 163.583 67.1088C122.009 77.0696 96.3164 118.718 105.989 160.294L105.987 160.294L122.979 231.212L122.993 231.209C133.595 272.113 175.063 297.15 216.33 287.262C257.598 277.375 283.217 236.265 274.132 194.997L274.145 194.994L273.887 193.917Z" fill="#D4A08C"/>  <path d="M273.887 193.917L269.993 194.832L269.995 194.841L269.997 194.849L273.887 193.917ZM273.72 193.223L269.831 194.155L269.833 194.164L269.835 194.173L273.72 193.223ZM257.324 124.786L253.431 125.708L253.434 125.718L257.324 124.786ZM257.226 124.379L253.336 125.311L253.339 125.322L257.226 124.379ZM257.153 124.076L261.043 123.144L260.112 119.256L256.223 120.186L257.153 124.076ZM257.152 124.076L253.268 125.034L254.219 128.89L258.082 127.967L257.152 124.076ZM163.583 67.1088L162.651 63.2189L163.583 67.1088ZM105.989 160.294L106.923 164.183L110.785 163.255L109.885 159.387L105.989 160.294ZM105.987 160.294L105.053 156.405L101.166 157.338L102.097 161.226L105.987 160.294ZM122.979 231.212L119.089 232.144L120.021 236.035L123.912 235.101L122.979 231.212ZM122.993 231.209L126.865 230.205L125.879 226.402L122.059 227.319L122.993 231.209ZM216.33 287.262L215.398 283.372H215.398L216.33 287.262ZM274.132 194.997L273.201 191.107L269.382 192.021L270.226 195.857L274.132 194.997ZM274.145 194.994L275.076 198.884L278.967 197.952L278.035 194.062L274.145 194.994ZM277.781 193.003C277.752 192.881 277.723 192.76 277.694 192.638L269.915 194.502C269.941 194.612 269.967 194.722 269.993 194.832L277.781 193.003ZM277.694 192.638C277.665 192.517 277.636 192.395 277.606 192.274L269.835 194.173C269.861 194.282 269.888 194.392 269.915 194.502L277.694 192.638ZM253.434 125.718L269.831 194.155L277.61 192.291L261.213 123.854L253.434 125.718ZM261.216 123.864C261.199 123.794 261.182 123.722 261.165 123.651L253.385 125.515C253.401 125.579 253.416 125.643 253.431 125.708L261.216 123.864ZM261.165 123.651C261.148 123.58 261.131 123.509 261.113 123.437L253.339 125.322C253.354 125.386 253.37 125.45 253.385 125.515L261.165 123.651ZM253.263 125.008L253.336 125.311L261.116 123.447L261.043 123.144L253.263 125.008ZM258.082 127.967L258.084 127.966L256.223 120.186L256.222 120.186L258.082 127.967ZM261.036 123.119C250.292 79.5405 206.365 52.7454 162.651 63.2189L164.515 70.9987C203.949 61.5506 243.576 85.7226 253.268 125.034L261.036 123.119ZM162.651 63.2189C118.937 73.6924 91.9225 117.484 102.093 161.2L109.885 159.387C100.71 119.952 125.081 80.4469 164.515 70.9987L162.651 63.2189ZM106.921 164.183L106.923 164.183L105.055 156.404L105.053 156.405L106.921 164.183ZM126.869 230.28L109.877 159.362L102.097 161.226L119.089 232.144L126.869 230.28ZM122.059 227.319L122.045 227.322L123.912 235.101L123.926 235.098L122.059 227.319ZM119.121 232.212C130.269 275.223 173.87 301.548 217.262 291.152L215.398 283.372C176.255 292.751 136.921 269.003 126.865 230.205L119.121 232.212ZM217.262 291.152C260.654 280.756 287.592 237.53 278.039 194.137L270.226 195.857C278.843 235 254.542 273.994 215.398 283.372L217.262 291.152ZM273.213 191.104L273.201 191.107L275.064 198.887L275.076 198.884L273.213 191.104ZM269.997 194.849L270.255 195.926L278.035 194.062L277.777 192.985L269.997 194.849Z" fill="black" mask="url(#path-4-inside-1)"/>  </g>  <defs>  <clipPath id="clip0">  <rect width="200" height="320" fill="white" transform="translate(90 43)"/>  </clipPath>  </defs></g></g><g id="gaoxia-avatar-Eyebrows"><path d="M219 134.214C224.667 131.548 238 129.114 246 140.714" stroke="black" stroke-width="4" stroke-linecap="round"/><path d="M143.579 159.521C145.65 153.61 153.261 142.396 167.142 144.822" stroke="black" stroke-width="4" stroke-linecap="round"/></g><g id="gaoxia-avatar-Eyes"><path d="M183.5 183.5C183.5 192.851 175.703 200.5 166 200.5C156.297 200.5 148.5 192.851 148.5 183.5C148.5 174.149 156.297 166.5 166 166.5C175.703 166.5 183.5 174.149 183.5 183.5Z" fill="white" stroke="black" stroke-width="3"/><path d="M260.5 175.5C260.5 184.851 252.703 192.5 243 192.5C233.297 192.5 225.5 184.851 225.5 175.5C225.5 166.149 233.297 158.5 243 158.5C252.703 158.5 260.5 166.149 260.5 175.5Z" fill="white" stroke="black" stroke-width="3"/><ellipse cx="162.5" cy="183" rx="15.5" ry="15" fill="black"/><ellipse cx="239.5" cy="175" rx="15.5" ry="15" fill="black"/></g><g id="gaoxia-avatar-Shirt"><path d="M189.771 359.577C189.771 359.577 189.771 359.577 191 357.999L189.771 359.577L191.493 360.918L192.679 359.087L192.679 359.086L192.681 359.083L192.69 359.069L192.731 359.007C192.742 358.99 192.755 358.97 192.769 358.948C192.803 358.897 192.847 358.831 192.9 358.752C193.05 358.527 193.275 358.194 193.57 357.769C194.158 356.918 195.023 355.701 196.118 354.246C198.312 351.331 201.416 347.481 205.071 343.718C208.737 339.944 212.898 336.317 217.198 333.793C221.514 331.259 225.777 329.949 229.733 330.482C272.171 336.204 303.402 355.001 323.674 383H50.3745C66.6742 353.658 89.8579 334.982 127.445 326.412C129.046 326.047 131.224 326.158 133.947 326.791C136.642 327.418 139.715 328.519 143.028 329.975C149.655 332.888 157.052 337.136 164.004 341.536C170.945 345.929 177.39 350.442 182.104 353.859C184.459 355.567 186.379 356.999 187.709 358.003C188.374 358.505 188.891 358.9 189.241 359.169C189.416 359.303 189.55 359.406 189.639 359.475L189.739 359.552L189.764 359.572L189.77 359.576L189.771 359.577Z" fill="#E97C17" stroke="black" stroke-width="4"/><path d="M115.613 329.085L120.779 309.853C120.989 309.074 121.996 308.854 122.54 309.449C137.403 325.714 156.16 325.076 162.385 324.33C163.23 324.228 163.892 325.153 163.495 325.906L150.338 350.859C150.136 351.241 149.724 351.452 149.3 351.364C145.352 350.541 125.677 345.732 115.729 329.867C115.583 329.635 115.542 329.35 115.613 329.085Z" fill="#d4975e" stroke="black" stroke-width="4"/><path d="M246.195 328.981L234.614 309.499C234.221 308.837 233.252 308.848 232.833 309.494C227.096 318.33 217.202 322.4 213.742 323.602C213.119 323.819 212.834 324.558 213.17 325.125L226.673 347.94C226.874 348.281 227.255 348.465 227.635 348.357C229.77 347.749 237.095 344.685 246.182 330.021C246.377 329.706 246.384 329.3 246.195 328.981Z" fill="#d4975e" stroke="black" stroke-width="4"/><path d="M172.5 346.5L163.5 325L156.5 340L172.5 346.5Z" fill="black" stroke="black" stroke-width="4" stroke-linejoin="round"/><path d="M204 345.5L213 324L220 339L204 345.5Z" fill="black" stroke="black" stroke-width="4" stroke-linejoin="round"/><path d="M133.5 306L121.5 309L131.5 315.5L133.5 306Z" fill="black" stroke="black" stroke-width="4" stroke-linejoin="round"/><path d="M223 306L234 309L227 315.5L223 306Z" fill="black" stroke="black" stroke-width="4" stroke-linejoin="round"/></g><g id="gaoxia-avatar-Mouth"><path d="M179.5 222.5C182 239.5 210.5 247.5 236.5 228" stroke="black" stroke-width="4"/></g><g id="gaoxia-avatar-Hair"><path d="M281.672 145.498C258.044 106.86 252.162 112.419 253 122C251.696 131.943 268.51 165.85 274.105 197C279.672 228 267.704 215.219 256.344 216.5C256.344 216.5 254.315 232.271 256.344 240.423C258.879 250.612 268.107 240.072 255.835 261.159C243.564 282.246 251.913 299.233 274.105 299.378C296.296 299.524 269.856 303.012 279.672 309.329C329.007 341.078 384.704 296.59 371.239 300.456C360.467 303.549 345.289 299.013 332.076 294.228C323.003 274.33 347.24 314.213 371.275 267.471C398 215.5 335.249 244.5 324.507 230.675C304.042 204.338 330.441 237.958 333.53 186.18C336.619 134.402 311.208 193.795 281.672 145.498Z" fill="#FF4D6B" stroke="black" stroke-width="4"/><path d="M73.0001 145C86.6001 101.8 93.0001 110 94.5001 119.5C98.1668 128.833 103.3 155.1 94.5001 185.5C85.7001 215.9 106.167 220.5 117.5 219C118.5 219.5 120.5 222.6 120.5 231C120.5 241.5 109 233.5 126 251C143 268.5 139 287 117.5 292.5C96.0002 298 122.5 295 114.5 303.5C74.2909 346.223 9.50018 316.5 23.5002 317C34.7002 317.4 48.3335 309.333 60.0002 301.5C64.0002 280 56.0002 318.5 15.5002 285C-17.0575 258.07 35.5967 275.06 52.0002 238C65.5002 207.5 48.0002 246.5 32.5002 197C17.0002 147.5 56.0001 199 73.0001 145Z" fill="#FF4D6B" stroke="black" stroke-width="4"/><path d="M86.0003 176C76.0003 183.5 60.0003 177 70.5003 176C70.5003 176 94.6251 141.937 88.5003 120.5C81.0003 94.2501 116.5 71.5 116.5 71.5C147 35.5 180.5 48 180.5 48C180.5 48 217 32.5 252.5 64.5C288.693 97.1243 249 88.5 269 94.5C304.5 86.5 285.5 110 269 107.5C252.5 105 269.218 112.843 273 133.5C276.629 153.318 285.698 141.912 297.5 145C297.5 145 286.5 158.5 278.5 159C270.5 159.5 259.5 155.4 259.5 145C259.5 132 258.5 133.5 252.5 120.5C246.5 107.5 257.5 139.5 245.5 139.5C245.5 118.3 235.167 100.667 230 94.5C221.834 100 204.2 107.7 199 94.5C192.5 78 200 107.5 186 107.5C151 107.5 166 106.5 172 94.5C178 82.5 160 81.5 155.5 94.5C151.9 104.9 159 116.167 163 120.5C152.167 120.5 134.3 128.4 135.5 118C132.446 128.471 125.966 127.902 115.726 136.224C120.943 132.741 125 129.964 125 129.964C126.334 140.631 133 178 114.5 178C100.27 178 91.9393 187.996 84.5003 191C90.4149 185.998 94.1957 169.853 86.0003 176Z" fill="#FF4D6B"/><path d="M135.5 118C132 130 124 127.5 111 140.5C107.567 143.933 108.663 149.279 108 151C108 151 103.5 152.5 98.5003 139.5L88.5003 120.5M135.5 118C139 106 140.5 67.5 150.5 67.5M135.5 118C134.3 128.4 152.167 120.5 163 120.5C159 116.167 151.9 104.9 155.5 94.5C160 81.5 178 82.5 172 94.5C166 106.5 151 107.5 186 107.5C200 107.5 192.5 78 199 94.5C204.2 107.7 221.834 100 230 94.5C235.167 100.667 245.5 118.3 245.5 139.5C257.5 139.5 246.5 107.5 252.5 120.5C258.5 133.5 259.5 132 259.5 145C259.5 155.4 270.5 159.5 278.5 159C286.5 158.5 297.5 145 297.5 145C285.698 141.912 276.629 153.318 273 133.5C269.218 112.843 252.5 105 269 107.5C285.5 110 304.5 86.5 269 94.5C249 88.5 288.693 97.1243 252.5 64.5C217 32.5 180.5 48 180.5 48C180.5 48 147 35.5 116.5 71.5C116.5 71.5 81.0003 94.2501 88.5003 120.5M88.5003 120.5C94.6251 141.937 70.5003 176 70.5003 176C60.0003 177 76.0003 183.5 86.0003 176C94.1957 169.853 90.4149 185.998 84.5003 191C91.9393 187.996 100.27 178 114.5 178C133 178 126.334 140.631 125 129.964C125 129.964 85.5003 157 94.5003 148.181C103.5 139.362 88.5003 120.5 88.5003 120.5Z" stroke="black" stroke-width="4"/><path d="M263.491 125.206C265.863 116.869 277.225 100.438 303.695 101.413M89 125.5C82.1667 120.167 63.3 113.6 42.5 130M267.279 126.154C267.279 126.154 310.627 125.822 301.855 136.192C293.083 146.562 267.279 126.154 267.279 126.154ZM86.5 128.5C86.5 128.5 51.3 153.8 64.5 157C77.7 160.2 86.5 128.5 86.5 128.5Z" stroke="#6E885F" stroke-width="4"/></g><g id="gaoxia-avatar-Ear"><path d="M120.5 183.176C118.17 182.408 115.655 182 113.08 182C102.587 182 94.0801 188.5 95.08 200.5C96.1216 213 103.587 217.5 114.08 217.5C115.248 217.5 116.391 217.397 117.5 217.201C118.711 216.987 119.881 216.661 121 216.235" stroke="#171921" stroke-width="8"/><path d="M121.5 216.036C119.22 216.979 116.713 217.5 114.08 217.5C103.587 217.5 96.1216 213 95.08 200.5C94.0801 188.5 102.587 182 113.08 182C116.217 182 119.267 182.606 122 183.73L121.5 216.036Z" fill="#D4A08C"/><path d="M117.5 190.5C113.5 188.667 104.7 187.7 101.5 198.5" stroke="#171921" stroke-width="4"/><path d="M107 191C109.167 192.833 113.3 198.5 112.5 206.5" stroke="#171921" stroke-width="4"/></g></svg>