<svg width="280" height="280" viewBox="0 0 380 380" fill="none" xmlns="http://www.w3.org/2000/svg"><g id="gaoxia-avatar-BackgroundColor"><rect width="100%" height="100%" fill="#9287FF" /></g><g id="gaoxia-avatar-Background"><rect width="100%" height="100%" fill="{{color[0]}}" />  <rect width="380" height="380" fill="{{color[0]}}" /><g clip-path="url(#clip0)"><rect width="380" height="380" fill="#494949" fill-opacity="0.3"/><rect x="39.3281" width="380" height="380" fill="#8A8A8A" fill-opacity="0.3"/><rect x="78.6543" width="380" height="380" fill="#494949" fill-opacity="0.3"/><rect x="117.982" width="380" height="380" fill="#494949" fill-opacity="0.3"/><rect x="157.309" width="380" height="380" fill="#8A8A8A" fill-opacity="0.3"/><rect x="196.637" width="380" height="380" fill="#C4C4C4" fill-opacity="0.3"/><rect x="235.964" width="380" height="380" fill="#C4C4C4" fill-opacity="0.3"/><rect x="275.291" width="380" height="380" fill="#C4C4C4" fill-opacity="0.3"/><rect x="314.618" width="380" height="380" fill="#494949" fill-opacity="0.3"/><rect x="353.944" width="380" height="380" fill="#C4C4C4" fill-opacity="0.3"/><rect y="42.0773" width="380" height="380" fill="#C4C4C4" fill-opacity="0.3"/><rect x="39.3281" y="42.0773" width="380" height="380" fill="#8A8A8A" fill-opacity="0.3"/><rect x="78.6543" y="42.0773" width="380" height="380" fill="#8A8A8A" fill-opacity="0.3"/><rect x="117.982" y="42.0773" width="380" height="380" fill="#8A8A8A" fill-opacity="0.3"/><rect x="157.309" y="42.0773" width="380" height="380" fill="#C4C4C4" fill-opacity="0.3"/><rect x="196.637" y="42.0773" width="380" height="380" fill="#8A8A8A" fill-opacity="0.3"/><rect x="235.964" y="42.0773" width="380" height="380" fill="#8A8A8A" fill-opacity="0.3"/><rect x="275.291" y="42.0773" width="380" height="380" fill="#C4C4C4" fill-opacity="0.3"/><rect x="314.618" y="42.0773" width="380" height="380" fill="#8A8A8A" fill-opacity="0.3"/><rect x="353.944" y="42.0773" width="380" height="380" fill="#8A8A8A" fill-opacity="0.3"/><rect y="84.1545" width="380" height="380" fill="#C4C4C4" fill-opacity="0.3"/><rect x="39.3281" y="84.1545" width="380" height="380" fill="#494949" fill-opacity="0.3"/><rect x="78.6543" y="84.1545" width="380" height="380" fill="#8A8A8A" fill-opacity="0.3"/><rect x="117.982" y="84.1545" width="380" height="380" fill="#C4C4C4" fill-opacity="0.3"/><rect x="157.309" y="84.1545" width="380" height="380" fill="#494949" fill-opacity="0.3"/><rect x="196.637" y="84.1545" width="380" height="380" fill="#8A8A8A" fill-opacity="0.3"/><rect x="235.964" y="84.1545" width="380" height="380" fill="#494949" fill-opacity="0.3"/><rect x="275.291" y="84.1545" width="380" height="380" fill="#8A8A8A" fill-opacity="0.3"/><rect x="314.618" y="84.1545" width="380" height="380" fill="#C4C4C4" fill-opacity="0.3"/><rect x="353.944" y="84.1545" width="380" height="380" fill="#494949" fill-opacity="0.3"/><rect y="126.232" width="380" height="380" fill="#C4C4C4" fill-opacity="0.3"/><rect x="39.3281" y="126.232" width="380" height="380" fill="#8A8A8A" fill-opacity="0.3"/><rect x="78.6543" y="126.232" width="380" height="380" fill="#8A8A8A" fill-opacity="0.3"/><rect x="117.982" y="126.232" width="380" height="380" fill="#494949" fill-opacity="0.3"/><rect x="157.309" y="126.232" width="380" height="380" fill="#8A8A8A" fill-opacity="0.3"/><rect x="196.637" y="126.232" width="380" height="380" fill="#C4C4C4" fill-opacity="0.3"/><rect x="235.964" y="126.232" width="380" height="380" fill="#8A8A8A" fill-opacity="0.3"/><rect x="275.291" y="126.232" width="380" height="380" fill="#8A8A8A" fill-opacity="0.3"/><rect x="314.618" y="126.232" width="380" height="380" fill="#C4C4C4" fill-opacity="0.3"/><rect x="353.944" y="126.232" width="380" height="380" fill="#C4C4C4" fill-opacity="0.3"/><rect y="168.309" width="380" height="380" fill="#494949" fill-opacity="0.3"/><rect x="39.3281" y="168.309" width="380" height="380" fill="#494949" fill-opacity="0.3"/><rect x="78.6543" y="168.309" width="380" height="380" fill="#C4C4C4" fill-opacity="0.3"/><rect x="117.982" y="168.309" width="380" height="380" fill="#494949" fill-opacity="0.3"/><rect x="157.309" y="168.309" width="380" height="380" fill="#C4C4C4" fill-opacity="0.3"/><rect x="196.637" y="168.309" width="380" height="380" fill="#C4C4C4" fill-opacity="0.3"/><rect x="235.964" y="168.309" width="380" height="380" fill="#8A8A8A" fill-opacity="0.3"/><rect x="275.291" y="168.309" width="380" height="380" fill="#494949" fill-opacity="0.3"/><rect x="314.618" y="168.309" width="380" height="380" fill="#8A8A8A" fill-opacity="0.3"/><rect x="353.944" y="168.309" width="380" height="380" fill="#8A8A8A" fill-opacity="0.3"/><rect y="210.386" width="380" height="380" fill="#8A8A8A" fill-opacity="0.3"/><rect x="39.3281" y="210.386" width="380" height="380" fill="#494949" fill-opacity="0.3"/><rect x="78.6543" y="210.386" width="380" height="380" fill="#494949" fill-opacity="0.3"/><rect x="117.982" y="210.386" width="380" height="380" fill="#C4C4C4" fill-opacity="0.3"/><rect x="157.309" y="210.386" width="380" height="380" fill="#C4C4C4" fill-opacity="0.3"/><rect x="196.637" y="210.386" width="380" height="380" fill="#C4C4C4" fill-opacity="0.3"/><rect x="235.964" y="210.386" width="380" height="380" fill="#8A8A8A" fill-opacity="0.3"/><rect x="275.291" y="210.386" width="380" height="380" fill="#8A8A8A" fill-opacity="0.3"/><rect x="314.618" y="210.386" width="380" height="380" fill="#494949" fill-opacity="0.3"/><rect x="353.944" y="210.386" width="380" height="380" fill="#8A8A8A" fill-opacity="0.3"/><rect y="252.464" width="380" height="380" fill="#494949" fill-opacity="0.3"/><rect x="39.3281" y="252.464" width="380" height="380" fill="#C4C4C4" fill-opacity="0.3"/><rect x="78.6543" y="252.464" width="380" height="380" fill="#8A8A8A" fill-opacity="0.3"/><rect x="117.982" y="252.464" width="380" height="380" fill="#C4C4C4" fill-opacity="0.3"/><rect x="157.309" y="252.464" width="380" height="380" fill="#C4C4C4" fill-opacity="0.3"/><rect x="196.637" y="252.464" width="380" height="380" fill="#494949" fill-opacity="0.3"/><rect x="235.964" y="252.464" width="380" height="380" fill="#494949" fill-opacity="0.3"/><rect x="275.291" y="252.464" width="380" height="380" fill="#8A8A8A" fill-opacity="0.3"/><rect x="314.618" y="252.464" width="380" height="380" fill="#C4C4C4" fill-opacity="0.3"/><rect x="353.944" y="252.464" width="380" height="380" fill="#C4C4C4" fill-opacity="0.3"/><rect y="294.541" width="380" height="380" fill="#494949" fill-opacity="0.3"/><rect x="39.3281" y="294.541" width="380" height="380" fill="#8A8A8A" fill-opacity="0.3"/><rect x="78.6543" y="294.541" width="380" height="380" fill="#494949" fill-opacity="0.3"/><rect x="117.982" y="294.541" width="380" height="380" fill="#8A8A8A" fill-opacity="0.3"/><rect x="157.309" y="294.541" width="380" height="380" fill="#494949" fill-opacity="0.3"/><rect x="196.637" y="294.541" width="380" height="380" fill="#C4C4C4" fill-opacity="0.3"/><rect x="235.964" y="294.541" width="380" height="380" fill="#494949" fill-opacity="0.3"/><rect x="275.291" y="294.541" width="380" height="380" fill="#494949" fill-opacity="0.3"/><rect x="314.618" y="294.541" width="380" height="380" fill="#494949" fill-opacity="0.3"/><rect x="353.944" y="294.541" width="380" height="380" fill="#494949" fill-opacity="0.3"/><rect y="336.618" width="380" height="380" fill="#494949" fill-opacity="0.3"/><rect x="39.3281" y="336.618" width="380" height="380" fill="#494949" fill-opacity="0.3"/><rect x="78.6543" y="336.618" width="380" height="380" fill="#494949" fill-opacity="0.3"/><rect x="117.982" y="336.618" width="380" height="380" fill="#C4C4C4" fill-opacity="0.3"/><rect x="157.309" y="336.618" width="380" height="380" fill="#8A8A8A" fill-opacity="0.3"/><rect x="196.637" y="336.618" width="380" height="380" fill="#8A8A8A" fill-opacity="0.3"/><rect x="235.964" y="336.618" width="380" height="380" fill="#494949" fill-opacity="0.3"/><rect x="275.291" y="336.618" width="380" height="380" fill="#494949" fill-opacity="0.3"/><rect x="314.618" y="336.618" width="380" height="380" fill="#C4C4C4" fill-opacity="0.3"/><rect x="353.944" y="336.618" width="380" height="380" fill="#8A8A8A" fill-opacity="0.3"/><rect y="378.695" width="380" height="380" fill="#C4C4C4" fill-opacity="0.3"/><rect x="39.3281" y="378.695" width="380" height="380" fill="#494949" fill-opacity="0.3"/><rect x="78.6543" y="378.695" width="380" height="380" fill="#C4C4C4" fill-opacity="0.3"/><rect x="117.982" y="378.695" width="380" height="380" fill="#494949" fill-opacity="0.3"/><rect x="157.309" y="378.695" width="380" height="380" fill="#C4C4C4" fill-opacity="0.3"/><rect x="196.637" y="378.695" width="380" height="380" fill="#8A8A8A" fill-opacity="0.3"/><rect x="235.964" y="378.695" width="380" height="380" fill="#C4C4C4" fill-opacity="0.3"/><rect x="275.291" y="378.695" width="380" height="380" fill="#8A8A8A" fill-opacity="0.3"/><rect x="314.618" y="378.695" width="380" height="380" fill="#C4C4C4" fill-opacity="0.3"/><rect x="353.944" y="378.695" width="380" height="380" fill="#C4C4C4" fill-opacity="0.3"/></g><defs><clipPath id="clip0"><rect width="380" height="380" fill="white"/></clipPath></defs></g><g id="gaoxia-avatar-Base"><g clip-path="url(#clip0)"><path d="M244 362.5C229.6 342.5 218.333 303.834 217 284.5L148.5 255L120 362.5H244Z" fill="#E8B4A0" stroke="black" stroke-width="4"/><mask id="mask0" mask-type="alpha" maskUnits="userSpaceOnUse" x="120" y="255" width="124" height="118"><path d="M244 372.5C229.6 352.5 218.333 303.834 217 284.5L148.5 255L120 372.5H244Z" fill="#AC6651"/></mask><g mask="url(#mask0)"><g style="mix-blend-mode:multiply"><ellipse cx="214" cy="253" rx="59" ry="54" fill="black"/></g></g><mask id="path-4-inside-1" fill="white"><path fill-rule="evenodd" clip-rule="evenodd" d="M273.887 193.917C273.86 193.802 273.832 193.686 273.804 193.57C273.777 193.454 273.749 193.339 273.72 193.223L257.324 124.786C257.307 124.718 257.291 124.651 257.275 124.583C257.259 124.515 257.242 124.447 257.226 124.379L257.153 124.076L257.152 124.076C246.934 82.6315 205.157 57.148 163.583 67.1088C122.009 77.0696 96.3164 118.718 105.989 160.294L105.987 160.294L122.979 231.212L122.993 231.209C133.595 272.113 175.063 297.15 216.33 287.262C257.598 277.375 283.217 236.265 274.132 194.997L274.145 194.994L273.887 193.917Z"/></mask><path fill-rule="evenodd" clip-rule="evenodd" d="M273.887 193.917C273.86 193.802 273.832 193.686 273.804 193.57C273.777 193.454 273.749 193.339 273.72 193.223L257.324 124.786C257.307 124.718 257.291 124.651 257.275 124.583C257.259 124.515 257.242 124.447 257.226 124.379L257.153 124.076L257.152 124.076C246.934 82.6315 205.157 57.148 163.583 67.1088C122.009 77.0696 96.3164 118.718 105.989 160.294L105.987 160.294L122.979 231.212L122.993 231.209C133.595 272.113 175.063 297.15 216.33 287.262C257.598 277.375 283.217 236.265 274.132 194.997L274.145 194.994L273.887 193.917Z" fill="#E8B4A0"/><path d="M273.887 193.917L269.993 194.832L269.995 194.841L269.997 194.849L273.887 193.917ZM273.72 193.223L269.831 194.155L269.833 194.164L269.835 194.173L273.72 193.223ZM257.324 124.786L253.431 125.708L253.434 125.718L257.324 124.786ZM257.226 124.379L253.336 125.311L253.339 125.322L257.226 124.379ZM257.153 124.076L261.043 123.144L260.112 119.256L256.223 120.186L257.153 124.076ZM257.152 124.076L253.268 125.034L254.219 128.89L258.082 127.967L257.152 124.076ZM163.583 67.1088L162.651 63.2189L163.583 67.1088ZM105.989 160.294L106.923 164.183L110.785 163.255L109.885 159.387L105.989 160.294ZM105.987 160.294L105.053 156.405L101.166 157.338L102.097 161.226L105.987 160.294ZM122.979 231.212L119.089 232.144L120.021 236.035L123.912 235.101L122.979 231.212ZM122.993 231.209L126.865 230.205L125.879 226.402L122.059 227.319L122.993 231.209ZM216.33 287.262L215.398 283.372H215.398L216.33 287.262ZM274.132 194.997L273.201 191.107L269.382 192.021L270.226 195.857L274.132 194.997ZM274.145 194.994L275.076 198.884L278.967 197.952L278.035 194.062L274.145 194.994ZM277.781 193.003C277.752 192.881 277.723 192.76 277.694 192.638L269.915 194.502C269.941 194.612 269.967 194.722 269.993 194.832L277.781 193.003ZM277.694 192.638C277.665 192.517 277.636 192.395 277.606 192.274L269.835 194.173C269.861 194.282 269.888 194.392 269.915 194.502L277.694 192.638ZM253.434 125.718L269.831 194.155L277.61 192.291L261.213 123.854L253.434 125.718ZM261.216 123.864C261.199 123.794 261.182 123.722 261.165 123.651L253.385 125.515C253.401 125.579 253.416 125.643 253.431 125.708L261.216 123.864ZM261.165 123.651C261.148 123.58 261.131 123.509 261.113 123.437L253.339 125.322C253.354 125.386 253.37 125.45 253.385 125.515L261.165 123.651ZM253.263 125.008L253.336 125.311L261.116 123.447L261.043 123.144L253.263 125.008ZM258.082 127.967L258.084 127.966L256.223 120.186L256.222 120.186L258.082 127.967ZM261.036 123.119C250.292 79.5405 206.365 52.7454 162.651 63.2189L164.515 70.9987C203.949 61.5506 243.576 85.7226 253.268 125.034L261.036 123.119ZM162.651 63.2189C118.937 73.6924 91.9225 117.484 102.093 161.2L109.885 159.387C100.71 119.952 125.081 80.4469 164.515 70.9987L162.651 63.2189ZM106.921 164.183L106.923 164.183L105.055 156.404L105.053 156.405L106.921 164.183ZM126.869 230.28L109.877 159.362L102.097 161.226L119.089 232.144L126.869 230.28ZM122.059 227.319L122.045 227.322L123.912 235.101L123.926 235.098L122.059 227.319ZM119.121 232.212C130.269 275.223 173.87 301.548 217.262 291.152L215.398 283.372C176.255 292.751 136.921 269.003 126.865 230.205L119.121 232.212ZM217.262 291.152C260.654 280.756 287.592 237.53 278.039 194.137L270.226 195.857C278.843 235 254.542 273.994 215.398 283.372L217.262 291.152ZM273.213 191.104L273.201 191.107L275.064 198.887L275.076 198.884L273.213 191.104ZM269.997 194.849L270.255 195.926L278.035 194.062L277.777 192.985L269.997 194.849Z" fill="black" mask="url(#path-4-inside-1)"/><path d="M270.125 194.454C279.614 234.058 255.201 273.856 215.597 283.344C192.29 288.929 168.915 282.771 151.691 268.686C134.499 252.8 130.499 201.3 126.692 176.949C140.691 208.45 176.316 210.895 210.192 204.95C238.691 199.95 261.49 198.95 261.49 159.95C263.376 162.566 268.468 187.537 270.125 194.454Z" fill="#E8B4A0"/></g><ellipse cx="209.75" cy="188.445" rx="69.5387" ry="31.1548" transform="rotate(-12.0124 209.75 188.445)" fill="url(#paint0_radial)"/><defs><radialGradient id="paint0_radial" cx="0" cy="0" r="1" gradientUnits="userSpaceOnUse" gradientTransform="translate(209.75 188.445) rotate(90) scale(31.1548 69.5387)"><stop stop-color="#ED9E56"/><stop offset="1" stop-color="#F7B9B9" stop-opacity="0"/></radialGradient><clipPath id="clip0"><rect width="200" height="320" fill="white" transform="translate(90 43)"/></clipPath></defs></g><g id="gaoxia-avatar-Eyebrows"><path d="M147.36 153.438C149.72 150.269 155.855 144.946 162.316 142.143C168.297 139.549 171.91 139.11 174.168 144.024" stroke="black" stroke-width="4"/><path d="M251.022 134.504C248.463 137.514 241.997 142.43 235.369 144.811C229.233 147.014 225.599 147.219 223.663 142.169" stroke="black" stroke-width="4"/></g><g id="gaoxia-avatar-Eyes"><ellipse cx="168.117" cy="167.928" rx="9" ry="10" transform="rotate(-6.77646 168.117 167.928)" fill="black"/><ellipse cx="232.148" cy="157.924" rx="9" ry="10" transform="rotate(-6.27568 232.148 157.924)" fill="black"/></g><g id="gaoxia-avatar-Shirt"><path d="M323.366 382.863H50.4563C50.4907 382.793 50.5255 382.722 50.5604 382.651C55.1052 373.395 63.4899 356.319 74.4025 341.041C80.5961 332.37 87.5303 324.387 94.9416 318.772C102.354 313.156 110.061 310.04 117.892 310.726C132.946 312.043 146.355 320.285 159.817 328.56C161.092 329.344 162.368 330.129 163.646 330.908C178.131 339.735 193.005 347.931 209.365 344.345C214.899 343.131 218.629 340.535 220.976 337.18C223.29 333.873 224.122 330.029 224.266 326.517C224.41 322.999 223.871 319.674 223.311 317.256C223.049 316.126 222.779 315.179 222.564 314.484C226.189 310.835 230.027 308.71 233.989 307.753C238.284 306.716 242.876 307.016 247.707 308.445C257.437 311.323 267.847 318.697 278.007 328.179C296.621 345.552 313.7 369.323 323.366 382.863Z" fill="#F4D150" stroke="black" stroke-width="4.27431"/></g><g id="gaoxia-avatar-Mouth"><path d="M179 248C182.211 240.043 194.107 223.233 216.007 219.652C237.907 216.071 249.127 228.107 252 234.572" stroke="black" stroke-width="4"/></g><g id="gaoxia-avatar-Hair"><path d="M150.484 135.61C150.484 135.61 114.847 133.623 110.887 139.706C106.928 145.788 120.786 208.602 125.736 232.855C130.686 257.108 150.484 258.717 143.021 303.291C136.454 342.509 151.021 359.246 154.616 362.702C155.114 363.161 155.393 363.399 155.393 363.399C155.393 363.399 155.107 363.174 154.616 362.702C150.51 358.919 131.539 340.069 131.539 314.772C131.539 314.772 126.872 356.222 138.353 367.426C149.834 378.63 73.5187 363.399 66.7049 357.266C59.891 351.134 88.6777 316.912 80.0195 273.595C71.3612 230.278 61.6395 151.115 80.0195 121.392C75.0987 60.3019 155.752 18.6856 209.644 54.1586C247.679 54.1586 276.457 120.068 276.457 166.001C276.457 272.771 261.779 316.65 299.561 344.294C313.922 352.194 241.09 367.426 241.09 367.426C241.09 367.426 210.745 282.008 226.967 282.008C282.725 262.224 266.304 172.373 254.92 123.867C227.697 135.61 175.197 135.61 175.197 135.61L168.797 112.978V135.61H155.393L150.484 121.392V135.61Z" fill="#FC909F" stroke="black" stroke-width="4"/></g><g id="gaoxia-avatar-Hat"><path d="M47.9118 61.0673C71.1607 27.2707 113.453 8.39972 129.229 17.2265L100.028 68.6908C93.4996 80.7595 108.034 98.0793 80.0764 93.2299C52.1193 88.3806 72.2352 141.818 54.6067 145.456C54.6067 145.456 36.946 111.831 30.9834 82.9403C25.0209 54.0492 39.6648 73.0559 47.9118 61.0673Z" fill="#A63D3D" stroke="black" stroke-width="4"/><path d="M79.0001 51.4342C85.879 73.3814 87.0001 68.9342 79.0001 81.9342C79.0001 134.934 83.0001 131.934 93.5001 154.434C101.9 172.434 206.333 122.268 257.5 94.9342C260 90.4342 261.1 75.4342 245.5 51.4342C229.9 27.4342 175.167 14.5 142.5 9C131 6.33334 68.5001 17.9342 79.0001 51.4342Z" fill="#C03D3D" stroke="black" stroke-width="4"/><ellipse cx="49" cy="146.934" rx="16" ry="16.5" fill="#FFF7F7"/><path d="M261 63.9343C248.2 57.9343 88 93.9343 79 128.434C71 140.101 73.5 154.934 93.5 164.434C111.114 172.801 216.166 139.268 261 113.434C279.5 102.774 273.8 69.9343 261 63.9343Z" fill="#FFF4F4" stroke="black" stroke-width="4"/></g><g id="gaoxia-avatar-Ear"><path d="M120.5 183.176C118.17 182.408 115.655 182 113.08 182C102.587 182 94.0801 188.5 95.08 200.5C96.1216 213 103.587 217.5 114.08 217.5C115.248 217.5 116.391 217.397 117.5 217.201C118.711 216.987 119.881 216.661 121 216.235" stroke="#171921" stroke-width="8"/><path d="M121.5 216.036C119.22 216.979 116.713 217.5 114.08 217.5C103.587 217.5 96.1216 213 95.08 200.5C94.0801 188.5 102.587 182 113.08 182C116.217 182 119.267 182.606 122 183.73L121.5 216.036Z" fill="#E8B4A0"/><path d="M117.5 190.5C113.5 188.667 104.7 187.7 101.5 198.5" stroke="#171921" stroke-width="4"/><path d="M107 191C109.167 192.833 113.3 198.5 112.5 206.5" stroke="#171921" stroke-width="4"/></g></svg>