<svg width="280" height="280" viewBox="0 0 380 380" fill="none" xmlns="http://www.w3.org/2000/svg"><g id="gaoxia-avatar-BackgroundColor"><rect width="100%" height="100%" fill="#6BD9E9" /></g><g id="gaoxia-avatar-Background"><rect width="100%" height="100%" fill="{{color[0]}}" />  <rect width="380" height="380" fill="{{color[0]}}" /><g clip-path="url(#clip0)"><circle cx="190.781" cy="273.807" r="253.303" fill="white" fill-opacity="0.2"/><circle cx="190.783" cy="303.573" r="156.036" fill="white" fill-opacity="0.2"/><circle cx="190.782" cy="279.579" r="195.199" fill="white" fill-opacity="0.2"/><circle cx="190.782" cy="380" r="106.193" fill="white" fill-opacity="0.2"/></g><defs><clipPath id="clip0"><rect width="380" height="380" fill="white" transform="translate(0.78125)"/></clipPath></defs></g><g id="gaoxia-avatar-Base"><g>  <g clip-path="url(#clip0)">  <path d="M244 362.5C229.6 342.5 218.333 303.834 217 284.5L148.5 255L120 362.5H244Z" fill="#D4A08C" stroke="black" stroke-width="4"/>  <mask id="mask0" mask-type="alpha" maskUnits="userSpaceOnUse" x="120" y="255" width="124" height="118">  <path d="M244 372.5C229.6 352.5 218.333 303.834 217 284.5L148.5 255L120 372.5H244Z" fill="#AC6651"/>  </mask>  <g mask="url(#mask0)">  <g style="mix-blend-mode:multiply">  <ellipse cx="214" cy="253" rx="59" ry="54" fill="black"/>  </g>  </g>  <mask id="path-4-inside-1" fill="white">  <path fill-rule="evenodd" clip-rule="evenodd" d="M273.887 193.917C273.86 193.802 273.832 193.686 273.804 193.57C273.777 193.454 273.749 193.339 273.72 193.223L257.324 124.786C257.307 124.718 257.291 124.651 257.275 124.583C257.259 124.515 257.242 124.447 257.226 124.379L257.153 124.076L257.152 124.076C246.934 82.6315 205.157 57.148 163.583 67.1088C122.009 77.0696 96.3164 118.718 105.989 160.294L105.987 160.294L122.979 231.212L122.993 231.209C133.595 272.113 175.063 297.15 216.33 287.262C257.598 277.375 283.217 236.265 274.132 194.997L274.145 194.994L273.887 193.917Z"/>  </mask>  <path fill-rule="evenodd" clip-rule="evenodd" d="M273.887 193.917C273.86 193.802 273.832 193.686 273.804 193.57C273.777 193.454 273.749 193.339 273.72 193.223L257.324 124.786C257.307 124.718 257.291 124.651 257.275 124.583C257.259 124.515 257.242 124.447 257.226 124.379L257.153 124.076L257.152 124.076C246.934 82.6315 205.157 57.148 163.583 67.1088C122.009 77.0696 96.3164 118.718 105.989 160.294L105.987 160.294L122.979 231.212L122.993 231.209C133.595 272.113 175.063 297.15 216.33 287.262C257.598 277.375 283.217 236.265 274.132 194.997L274.145 194.994L273.887 193.917Z" fill="#D4A08C"/>  <path d="M273.887 193.917L269.993 194.832L269.995 194.841L269.997 194.849L273.887 193.917ZM273.72 193.223L269.831 194.155L269.833 194.164L269.835 194.173L273.72 193.223ZM257.324 124.786L253.431 125.708L253.434 125.718L257.324 124.786ZM257.226 124.379L253.336 125.311L253.339 125.322L257.226 124.379ZM257.153 124.076L261.043 123.144L260.112 119.256L256.223 120.186L257.153 124.076ZM257.152 124.076L253.268 125.034L254.219 128.89L258.082 127.967L257.152 124.076ZM163.583 67.1088L162.651 63.2189L163.583 67.1088ZM105.989 160.294L106.923 164.183L110.785 163.255L109.885 159.387L105.989 160.294ZM105.987 160.294L105.053 156.405L101.166 157.338L102.097 161.226L105.987 160.294ZM122.979 231.212L119.089 232.144L120.021 236.035L123.912 235.101L122.979 231.212ZM122.993 231.209L126.865 230.205L125.879 226.402L122.059 227.319L122.993 231.209ZM216.33 287.262L215.398 283.372H215.398L216.33 287.262ZM274.132 194.997L273.201 191.107L269.382 192.021L270.226 195.857L274.132 194.997ZM274.145 194.994L275.076 198.884L278.967 197.952L278.035 194.062L274.145 194.994ZM277.781 193.003C277.752 192.881 277.723 192.76 277.694 192.638L269.915 194.502C269.941 194.612 269.967 194.722 269.993 194.832L277.781 193.003ZM277.694 192.638C277.665 192.517 277.636 192.395 277.606 192.274L269.835 194.173C269.861 194.282 269.888 194.392 269.915 194.502L277.694 192.638ZM253.434 125.718L269.831 194.155L277.61 192.291L261.213 123.854L253.434 125.718ZM261.216 123.864C261.199 123.794 261.182 123.722 261.165 123.651L253.385 125.515C253.401 125.579 253.416 125.643 253.431 125.708L261.216 123.864ZM261.165 123.651C261.148 123.58 261.131 123.509 261.113 123.437L253.339 125.322C253.354 125.386 253.37 125.45 253.385 125.515L261.165 123.651ZM253.263 125.008L253.336 125.311L261.116 123.447L261.043 123.144L253.263 125.008ZM258.082 127.967L258.084 127.966L256.223 120.186L256.222 120.186L258.082 127.967ZM261.036 123.119C250.292 79.5405 206.365 52.7454 162.651 63.2189L164.515 70.9987C203.949 61.5506 243.576 85.7226 253.268 125.034L261.036 123.119ZM162.651 63.2189C118.937 73.6924 91.9225 117.484 102.093 161.2L109.885 159.387C100.71 119.952 125.081 80.4469 164.515 70.9987L162.651 63.2189ZM106.921 164.183L106.923 164.183L105.055 156.404L105.053 156.405L106.921 164.183ZM126.869 230.28L109.877 159.362L102.097 161.226L119.089 232.144L126.869 230.28ZM122.059 227.319L122.045 227.322L123.912 235.101L123.926 235.098L122.059 227.319ZM119.121 232.212C130.269 275.223 173.87 301.548 217.262 291.152L215.398 283.372C176.255 292.751 136.921 269.003 126.865 230.205L119.121 232.212ZM217.262 291.152C260.654 280.756 287.592 237.53 278.039 194.137L270.226 195.857C278.843 235 254.542 273.994 215.398 283.372L217.262 291.152ZM273.213 191.104L273.201 191.107L275.064 198.887L275.076 198.884L273.213 191.104ZM269.997 194.849L270.255 195.926L278.035 194.062L277.777 192.985L269.997 194.849Z" fill="black" mask="url(#path-4-inside-1)"/>  </g>  <defs>  <clipPath id="clip0">  <rect width="200" height="320" fill="white" transform="translate(90 43)"/>  </clipPath>  </defs></g></g><g id="gaoxia-avatar-Eyebrows"><path d="M219 134.214C224.667 131.548 238 129.114 246 140.714" stroke="black" stroke-width="4" stroke-linecap="round"/><path d="M143.579 159.521C145.65 153.61 153.261 142.396 167.142 144.822" stroke="black" stroke-width="4" stroke-linecap="round"/></g><g id="gaoxia-avatar-Eyes"><path d="M183.5 183.5C183.5 192.851 175.703 200.5 166 200.5C156.297 200.5 148.5 192.851 148.5 183.5C148.5 174.149 156.297 166.5 166 166.5C175.703 166.5 183.5 174.149 183.5 183.5Z" fill="white" stroke="black" stroke-width="3"/><path d="M260.5 175.5C260.5 184.851 252.703 192.5 243 192.5C233.297 192.5 225.5 184.851 225.5 175.5C225.5 166.149 233.297 158.5 243 158.5C252.703 158.5 260.5 166.149 260.5 175.5Z" fill="white" stroke="black" stroke-width="3"/><ellipse cx="162.5" cy="183" rx="15.5" ry="15" fill="black"/><ellipse cx="239.5" cy="175" rx="15.5" ry="15" fill="black"/></g><g id="gaoxia-avatar-Shirt"><path d="M189.771 359.577C189.771 359.577 189.771 359.577 191 357.999L189.771 359.577L191.493 360.918L192.679 359.087L192.679 359.086L192.681 359.083L192.69 359.069L192.731 359.007C192.742 358.99 192.755 358.97 192.769 358.948C192.803 358.897 192.847 358.831 192.9 358.752C193.05 358.527 193.275 358.194 193.57 357.769C194.158 356.918 195.023 355.701 196.118 354.246C198.312 351.331 201.416 347.481 205.071 343.718C208.737 339.944 212.898 336.317 217.198 333.793C221.514 331.259 225.777 329.949 229.733 330.482C272.171 336.204 303.402 355.001 323.674 383H50.3745C66.6742 353.658 89.8579 334.982 127.445 326.412C129.046 326.047 131.224 326.158 133.947 326.791C136.642 327.418 139.715 328.519 143.028 329.975C149.655 332.888 157.052 337.136 164.004 341.536C170.945 345.929 177.39 350.442 182.104 353.859C184.459 355.567 186.379 356.999 187.709 358.003C188.374 358.505 188.891 358.9 189.241 359.169C189.416 359.303 189.55 359.406 189.639 359.475L189.739 359.552L189.764 359.572L189.77 359.576L189.771 359.577Z" fill="#B4B0CD" stroke="black" stroke-width="4"/><path d="M115.613 329.085L120.779 309.853C120.989 309.074 121.996 308.854 122.54 309.449C137.403 325.714 156.16 325.076 162.385 324.33C163.23 324.228 163.892 325.153 163.495 325.906L150.338 350.859C150.136 351.241 149.724 351.452 149.3 351.364C145.352 350.541 125.677 345.732 115.729 329.867C115.583 329.635 115.542 329.35 115.613 329.085Z" fill="#e4e2f1" stroke="black" stroke-width="4"/><path d="M246.195 328.981L234.614 309.499C234.221 308.837 233.252 308.848 232.833 309.494C227.096 318.33 217.202 322.4 213.742 323.602C213.119 323.819 212.834 324.558 213.17 325.125L226.673 347.94C226.874 348.281 227.255 348.465 227.635 348.357C229.77 347.749 237.095 344.685 246.182 330.021C246.377 329.706 246.384 329.3 246.195 328.981Z" fill="#e4e2f1" stroke="black" stroke-width="4"/><path d="M172.5 346.5L163.5 325L156.5 340L172.5 346.5Z" fill="black" stroke="black" stroke-width="4" stroke-linejoin="round"/><path d="M204 345.5L213 324L220 339L204 345.5Z" fill="black" stroke="black" stroke-width="4" stroke-linejoin="round"/><path d="M133.5 306L121.5 309L131.5 315.5L133.5 306Z" fill="black" stroke="black" stroke-width="4" stroke-linejoin="round"/><path d="M223 306L234 309L227 315.5L223 306Z" fill="black" stroke="black" stroke-width="4" stroke-linejoin="round"/></g><g id="gaoxia-avatar-Mouth"><path d="M216.047 259.892C226.884 257.931 233.233 245.955 231.025 233.754C228.817 221.553 218.674 212.563 207.837 214.524C197 216.485 190.651 228.461 192.859 240.662C195.067 252.863 205.21 261.853 216.047 259.892Z" fill="black" stroke="black" stroke-width="3.59115"/><mask id="mask0" mask-type="alpha" maskUnits="userSpaceOnUse" x="194" y="216" width="36" height="43"><ellipse cx="211.942" cy="237.208" rx="17.5976" ry="21.257" transform="rotate(-10.2582 211.942 237.208)" fill="#171921"/></mask><g mask="url(#mask0)"><ellipse cx="215.202" cy="255.22" rx="20.2046" ry="18.3047" transform="rotate(-10.2582 215.202 255.22)" fill="#FC909F"/></g></g><g id="gaoxia-avatar-Hair"><path d="M281.726 131.791C281.726 65.702 245.268 21.0001 200.859 21C143.966 21 86 42.3414 86 143.255C86 168.223 96.6589 186.827 111.564 200.54C110.07 198.671 108.867 196.996 108.067 195.619C105.176 168.638 137.233 147.929 168.601 127.665C185.254 116.907 201.712 106.275 212.646 94.8956C222.24 100.332 250.44 123.109 255.813 132.32C258.695 137.26 263.322 154.189 266.484 173.95C276.822 161.532 281.726 149.107 281.726 131.791Z" fill="white" stroke="black" stroke-width="4"/><path d="M213.264 94.2459C226.438 82.3014 246.146 55.04 244.881 37.3341" stroke="black" stroke-width="4"/></g><g id="gaoxia-avatar-Ear"><path d="M120.5 183.176C118.17 182.408 115.655 182 113.08 182C102.587 182 94.0801 188.5 95.08 200.5C96.1216 213 103.587 217.5 114.08 217.5C115.248 217.5 116.391 217.397 117.5 217.201C118.711 216.987 119.881 216.661 121 216.235" stroke="#171921" stroke-width="8"/><path d="M121.5 216.036C119.22 216.979 116.713 217.5 114.08 217.5C103.587 217.5 96.1216 213 95.08 200.5C94.0801 188.5 102.587 182 113.08 182C116.217 182 119.267 182.606 122 183.73L121.5 216.036Z" fill="#D4A08C"/><path d="M117.5 190.5C113.5 188.667 104.7 187.7 101.5 198.5" stroke="#171921" stroke-width="4"/><path d="M107 191C109.167 192.833 113.3 198.5 112.5 206.5" stroke="#171921" stroke-width="4"/></g><g id="gaoxia-avatar-Glasses"><path d="M185.5 194.5C193.333 186.667 214.3 174.1 235.5 186.5" stroke="black" stroke-width="4"/><path d="M120 179C131.333 196.333 164 227.3 172 206.5" stroke="black" stroke-width="4"/><path d="M266.5 173C273.5 177.167 290.4 185.4 280 189C269.6 192.6 260.333 190.5 257 189" stroke="black" stroke-width="4"/><path d="M263.689 179.112C255.239 184.341 254.132 181.291 254.635 179.112C259.162 172.575 253.126 176.207 242.563 172.575C232 168.944 237.282 183.47 228.228 189.28C220.669 194.131 235.018 200.175 232 204.532C228.983 208.89 239.545 225.595 242.563 216.153C245.581 206.711 254.635 215.427 263.689 216.153C272.743 216.88 274.252 210.343 274.252 204.532C274.252 198.722 269.725 194.364 274.252 189.28C278.779 184.196 274.252 172.575 263.689 179.112Z" fill="white" stroke="#D8AE5D"/><ellipse cx="252.5" cy="196" rx="9.5" ry="9" fill="#E2C55E"/><path d="M190.373 178.481C181.321 184.652 180.136 181.052 180.674 178.481C185.524 170.767 172.23 171.591 162.123 178.481C150.808 186.195 162.085 183.624 152.387 190.48C144.289 196.205 159.661 203.337 156.428 208.48C153.195 213.622 157.29 218.585 167.743 222.193C180.674 226.657 180.674 221.336 190.373 222.193C200.072 223.05 201.688 215.337 201.688 208.48C201.688 201.623 209.14 190.48 201.688 190.48C196.877 190.48 201.688 170.767 190.373 178.481Z" fill="white" stroke="#D8AE5D"/><ellipse cx="179.5" cy="198" rx="9.5" ry="9" fill="#E2C55E"/></g></svg>