<svg width="280" height="280" viewBox="0 0 380 380" fill="none" xmlns="http://www.w3.org/2000/svg"><g id="gaoxia-avatar-Background"><rect width="100%" height="100%" fill="#D2EFF3" /></g><g id="gaoxia-avatar-Base"><g clip-path="url(#clip0)"><path d="M244 362.5C229.6 342.5 218.333 303.834 217 284.5L148.5 255L120 362.5H244Z" fill="#C08B78" stroke="black" stroke-width="4"/><mask id="mask0" mask-type="alpha" maskUnits="userSpaceOnUse" x="120" y="255" width="124" height="118"><path d="M244 372.5C229.6 352.5 218.333 303.834 217 284.5L148.5 255L120 372.5H244Z" fill="#AC6651"/></mask><g mask="url(#mask0)"><g style="mix-blend-mode:multiply"><ellipse cx="214" cy="253" rx="59" ry="54" fill="black"/></g></g><mask id="path-4-inside-1" fill="white"><path fill-rule="evenodd" clip-rule="evenodd" d="M273.887 193.917C273.86 193.802 273.832 193.686 273.804 193.57C273.777 193.454 273.749 193.339 273.72 193.223L257.324 124.786C257.307 124.718 257.291 124.651 257.275 124.583C257.259 124.515 257.242 124.447 257.226 124.379L257.153 124.076L257.152 124.076C246.934 82.6315 205.157 57.148 163.583 67.1088C122.009 77.0696 96.3164 118.718 105.989 160.294L105.987 160.294L122.979 231.212L122.993 231.209C133.595 272.113 175.063 297.15 216.33 287.262C257.598 277.375 283.217 236.265 274.132 194.997L274.145 194.994L273.887 193.917Z"/></mask><path fill-rule="evenodd" clip-rule="evenodd" d="M273.887 193.917C273.86 193.802 273.832 193.686 273.804 193.57C273.777 193.454 273.749 193.339 273.72 193.223L257.324 124.786C257.307 124.718 257.291 124.651 257.275 124.583C257.259 124.515 257.242 124.447 257.226 124.379L257.153 124.076L257.152 124.076C246.934 82.6315 205.157 57.148 163.583 67.1088C122.009 77.0696 96.3164 118.718 105.989 160.294L105.987 160.294L122.979 231.212L122.993 231.209C133.595 272.113 175.063 297.15 216.33 287.262C257.598 277.375 283.217 236.265 274.132 194.997L274.145 194.994L273.887 193.917Z" fill="#C08B78"/><path d="M273.887 193.917L269.993 194.832L269.995 194.841L269.997 194.849L273.887 193.917ZM273.72 193.223L269.831 194.155L269.833 194.164L269.835 194.173L273.72 193.223ZM257.324 124.786L253.431 125.708L253.434 125.718L257.324 124.786ZM257.226 124.379L253.336 125.311L253.339 125.322L257.226 124.379ZM257.153 124.076L261.043 123.144L260.112 119.256L256.223 120.186L257.153 124.076ZM257.152 124.076L253.268 125.034L254.219 128.89L258.082 127.967L257.152 124.076ZM163.583 67.1088L162.651 63.2189L163.583 67.1088ZM105.989 160.294L106.923 164.183L110.785 163.255L109.885 159.387L105.989 160.294ZM105.987 160.294L105.053 156.405L101.166 157.338L102.097 161.226L105.987 160.294ZM122.979 231.212L119.089 232.144L120.021 236.035L123.912 235.101L122.979 231.212ZM122.993 231.209L126.865 230.205L125.879 226.402L122.059 227.319L122.993 231.209ZM216.33 287.262L215.398 283.372H215.398L216.33 287.262ZM274.132 194.997L273.201 191.107L269.382 192.021L270.226 195.857L274.132 194.997ZM274.145 194.994L275.076 198.884L278.967 197.952L278.035 194.062L274.145 194.994ZM277.781 193.003C277.752 192.881 277.723 192.76 277.694 192.638L269.915 194.502C269.941 194.612 269.967 194.722 269.993 194.832L277.781 193.003ZM277.694 192.638C277.665 192.517 277.636 192.395 277.606 192.274L269.835 194.173C269.861 194.282 269.888 194.392 269.915 194.502L277.694 192.638ZM253.434 125.718L269.831 194.155L277.61 192.291L261.213 123.854L253.434 125.718ZM261.216 123.864C261.199 123.794 261.182 123.722 261.165 123.651L253.385 125.515C253.401 125.579 253.416 125.643 253.431 125.708L261.216 123.864ZM261.165 123.651C261.148 123.58 261.131 123.509 261.113 123.437L253.339 125.322C253.354 125.386 253.37 125.45 253.385 125.515L261.165 123.651ZM253.263 125.008L253.336 125.311L261.116 123.447L261.043 123.144L253.263 125.008ZM258.082 127.967L258.084 127.966L256.223 120.186L256.222 120.186L258.082 127.967ZM261.036 123.119C250.292 79.5405 206.365 52.7454 162.651 63.2189L164.515 70.9987C203.949 61.5506 243.576 85.7226 253.268 125.034L261.036 123.119ZM162.651 63.2189C118.937 73.6924 91.9225 117.484 102.093 161.2L109.885 159.387C100.71 119.952 125.081 80.4469 164.515 70.9987L162.651 63.2189ZM106.921 164.183L106.923 164.183L105.055 156.404L105.053 156.405L106.921 164.183ZM126.869 230.28L109.877 159.362L102.097 161.226L119.089 232.144L126.869 230.28ZM122.059 227.319L122.045 227.322L123.912 235.101L123.926 235.098L122.059 227.319ZM119.121 232.212C130.269 275.223 173.87 301.548 217.262 291.152L215.398 283.372C176.255 292.751 136.921 269.003 126.865 230.205L119.121 232.212ZM217.262 291.152C260.654 280.756 287.592 237.53 278.039 194.137L270.226 195.857C278.843 235 254.542 273.994 215.398 283.372L217.262 291.152ZM273.213 191.104L273.201 191.107L275.064 198.887L275.076 198.884L273.213 191.104ZM269.997 194.849L270.255 195.926L278.035 194.062L277.777 192.985L269.997 194.849Z" fill="black" mask="url(#path-4-inside-1)"/><path d="M270.125 194.454C279.614 234.058 255.201 273.856 215.597 283.344C192.29 288.929 168.915 282.771 151.691 268.686C134.499 252.8 130.499 201.3 126.692 176.949C140.691 208.45 176.316 210.895 210.192 204.95C238.691 199.95 261.49 198.95 261.49 159.95C263.376 162.566 268.468 187.537 270.125 194.454Z" fill="#C08B78"/></g><ellipse cx="209.75" cy="188.445" rx="69.5387" ry="31.1548" transform="rotate(-12.0124 209.75 188.445)" fill="url(#paint0_radial)"/><defs><radialGradient id="paint0_radial" cx="0" cy="0" r="1" gradientUnits="userSpaceOnUse" gradientTransform="translate(209.75 188.445) rotate(90) scale(31.1548 69.5387)"><stop stop-color="#ED9E56"/><stop offset="1" stop-color="#F7B9B9" stop-opacity="0"/></radialGradient><clipPath id="clip0"><rect width="200" height="320" fill="white" transform="translate(90 43)"/></clipPath></defs></g><g id="gaoxia-avatar-Eyebrows"><path d="M234.854 135.346C236.244 139.903 236.184 145.478 235.579 148.149C230.939 149.131 229.035 136.648 228.663 130.283C232.205 129.11 233.568 131.129 234.854 135.346Z" fill="#403838" stroke="black" stroke-width="4"/><path d="M166.043 139.696C164.653 144.252 164.713 149.827 165.318 152.498C169.958 153.481 171.862 140.997 172.234 134.632C168.692 133.459 167.329 135.478 166.043 139.696Z" fill="#403838" stroke="black" stroke-width="4"/></g><g id="gaoxia-avatar-Eyes"><ellipse cx="168.117" cy="167.928" rx="9" ry="10" transform="rotate(-6.77646 168.117 167.928)" fill="black"/><ellipse cx="232.148" cy="157.924" rx="9" ry="10" transform="rotate(-6.27568 232.148 157.924)" fill="black"/></g><g id="gaoxia-avatar-Shirt"><path d="M323.366 382.863H50.4563C50.4907 382.793 50.5255 382.722 50.5604 382.651C55.1052 373.395 63.4899 356.319 74.4025 341.041C80.5961 332.37 87.5303 324.387 94.9416 318.772C102.354 313.156 110.061 310.04 117.892 310.726C132.946 312.043 146.355 320.285 159.817 328.56C161.092 329.344 162.368 330.129 163.646 330.908C178.131 339.735 193.005 347.931 209.365 344.345C214.899 343.131 218.629 340.535 220.976 337.18C223.29 333.873 224.122 330.029 224.266 326.517C224.41 322.999 223.871 319.674 223.311 317.256C223.049 316.126 222.779 315.179 222.564 314.484C226.189 310.835 230.027 308.71 233.989 307.753C238.284 306.716 242.876 307.016 247.707 308.445C257.437 311.323 267.847 318.697 278.007 328.179C296.621 345.552 313.7 369.323 323.366 382.863Z" fill="#6BD9E9" stroke="black" stroke-width="4.27431"/></g><g id="gaoxia-avatar-Mouth"><path d="M230.37 232.604C230.537 230.398 228.426 229.081 226.628 229.568C224.222 230.22 219.129 231.481 215.571 231.608C211.639 231.748 205.915 230.634 203.322 230.069C201.498 229.671 199.475 231.093 199.736 233.271C199.917 234.777 200.319 236.25 200.932 237.643C201.747 239.493 202.918 241.164 204.378 242.562C205.839 243.959 207.56 245.056 209.445 245.788C211.329 246.52 213.339 246.874 215.36 246.83C217.381 246.785 219.373 246.343 221.223 245.528C223.073 244.714 224.745 243.543 226.142 242.082C227.54 240.622 228.636 238.9 229.368 237.016C229.919 235.6 230.255 234.113 230.37 232.604Z" fill="#171921" stroke="#171921" stroke-width="4"/><mask id="mask0" mask-type="alpha" maskUnits="userSpaceOnUse" x="198" y="231" width="33" height="16"><path d="M230.814 231.39C230.858 233.357 230.487 235.313 229.722 237.148C228.958 238.983 227.816 240.66 226.36 242.083C224.904 243.507 223.164 244.649 221.239 245.444C219.314 246.24 217.241 246.673 215.139 246.719C213.037 246.766 210.947 246.424 208.989 245.714C207.03 245.004 205.242 243.94 203.725 242.582C202.208 241.224 200.993 239.599 200.148 237.8C199.304 236.001 198.847 234.062 198.803 232.095L230.814 231.39Z" fill="#171921"/></mask><g mask="url(#mask0)"><ellipse cx="215.45" cy="246.436" rx="10.7563" ry="10.065" transform="rotate(-1.26265 215.45 246.436)" fill="#FC909F"/></g><path d="M218.237 231.222C218.279 233.154 216.3 234.765 213.815 234.82C211.33 234.875 209.281 233.353 209.239 231.42C209.196 229.488 211.231 230.376 213.716 230.321C216.2 230.266 218.194 229.289 218.237 231.222Z" fill="white"/></g><g id="gaoxia-avatar-Hair"><path opacity="0.35" d="M246.985 108.175C238.985 101.775 225.152 101.175 219.485 101.675L211.485 75.175C225.085 78.375 243.485 99.175 246.985 108.175Z" fill="#362100"/><path d="M144.792 42.7638C144.792 42.7638 150.53 38.8022 174.746 32.7012C198.962 26.6002 207.792 28.9835 207.792 28.9835L219.58 101.815C219.58 101.815 211.541 101.642 191.548 106.009C171.555 110.376 161.985 115.675 161.985 115.675L144.792 42.7638Z" fill="#362100"/><path d="M107.985 117.675C101.185 76.075 131.319 49.5084 144.985 42.175L161.985 115.675C142.785 76.075 116.652 100.508 107.985 117.675Z" fill="#362100"/><path opacity="0.35" d="M126.485 161.675C119.285 134.475 148.485 119.841 161.985 115.674C154.985 99.3408 138.985 84.6741 119.485 102.675C101.485 133.174 108.485 156.675 113.986 174.675L126.485 161.675Z" fill="#362100"/></g><g id="gaoxia-avatar-Hat"><path d="M47.9118 61.0673C71.1607 27.2707 113.453 8.39972 129.229 17.2265L100.028 68.6908C93.4996 80.7595 108.034 98.0793 80.0764 93.2299C52.1193 88.3806 72.2352 141.818 54.6067 145.456C54.6067 145.456 36.946 111.831 30.9834 82.9403C25.0209 54.0492 39.6648 73.0559 47.9118 61.0673Z" fill="#A63D3D" stroke="black" stroke-width="4"/><path d="M79.0001 51.4342C85.879 73.3814 87.0001 68.9342 79.0001 81.9342C79.0001 134.934 83.0001 131.934 93.5001 154.434C101.9 172.434 206.333 122.268 257.5 94.9342C260 90.4342 261.1 75.4342 245.5 51.4342C229.9 27.4342 175.167 14.5 142.5 9C131 6.33334 68.5001 17.9342 79.0001 51.4342Z" fill="#C03D3D" stroke="black" stroke-width="4"/><ellipse cx="49" cy="146.934" rx="16" ry="16.5" fill="#FFF7F7"/><path d="M261 63.9343C248.2 57.9343 88 93.9343 79 128.434C71 140.101 73.5 154.934 93.5 164.434C111.114 172.801 216.166 139.268 261 113.434C279.5 102.774 273.8 69.9343 261 63.9343Z" fill="#FFF4F4" stroke="black" stroke-width="4"/></g><g id="gaoxia-avatar-Ear"><path d="M121.466 215.861L122 215.286V214.501V180.999V179.88L121.046 179.295C117.312 177.004 112.772 175.75 108.08 175.75C102.44 175.75 97.1591 177.497 93.3977 181.045C89.5942 184.632 87.5421 189.877 88.0869 196.416C88.6179 202.788 90.7569 207.477 94.3047 210.593C94.0134 211.592 93.9273 212.67 94.0624 213.803C94.4517 217.072 96.1039 219.427 98.6572 220.878C101.091 222.261 104.206 222.75 107.524 222.75C113.003 222.75 117.808 219.803 121.466 215.861Z" stroke="black" stroke-width="4"/><path fill-rule="evenodd" clip-rule="evenodd" d="M127.972 196.734C128.043 196.082 128.08 195.42 128.08 194.75C128.08 184.533 118.573 177.75 108.08 177.75C97.5866 177.75 89.0801 184.25 90.08 196.25C90.6364 202.927 93.0258 207.322 96.7307 209.967C96.1423 210.991 95.8848 212.194 96.0483 213.567C96.6774 218.848 101.186 220.75 107.524 220.75C118.629 220.75 127.416 206.703 127.972 196.734Z" fill="#C08B78"/><path d="M112.5 186.25C108.5 184.417 99.7 183.45 96.5 194.25" stroke="#171921" stroke-width="4"/><path d="M102 186.75C104.167 188.583 108.3 194.25 107.5 202.25" stroke="#171921" stroke-width="4"/></g></svg>